<?xml version="1.0" standalone="no"?>
<!DOCTYPE svg PUBLIC "-//W3C//DTD SVG 20010904//EN"
 "http://www.w3.org/TR/2001/REC-SVG-20010904/DTD/svg10.dtd">
<svg version="1.0" xmlns="http://www.w3.org/2000/svg"
 width="211.000000pt" height="221.000000pt" viewBox="0 0 211.000000 221.000000"
 preserveAspectRatio="xMidYMid meet">

<g transform="translate(0.000000,221.000000) scale(0.100000,-0.100000)"
fill="#000000" stroke="none">
<path d="M162 1954 c-22 -15 -22 -18 -22 -270 0 -241 1 -255 20 -274 11 -11
29 -20 40 -20 11 0 29 9 40 20 19 19 20 33 20 230 l0 210 208 0 c190 0 210 2
225 18 24 26 21 68 -5 86 -19 13 -61 16 -263 16 -202 0 -244 -3 -263 -16z"/>
<path d="M1442 1954 c-27 -19 -29 -64 -4 -87 16 -15 47 -17 225 -17 l207 0 0
-210 c0 -197 1 -211 20 -230 11 -11 29 -20 40 -20 11 0 29 9 40 20 19 19 20
33 20 274 0 252 0 255 -22 270 -19 13 -61 16 -263 16 -202 0 -244 -3 -263 -16z"/>
<path d="M157 1082 c-22 -24 -21 -65 1 -85 17 -16 94 -17 909 -17 849 0 891 1
906 18 22 24 21 65 -1 85 -17 16 -94 17 -909 17 -849 0 -891 -1 -906 -18z"/>
<path d="M161 671 c-20 -20 -21 -31 -21 -275 0 -252 0 -255 22 -270 19 -13 61
-16 263 -16 266 0 285 4 285 59 0 59 -5 61 -235 63 l-210 3 -5 212 c-3 121 -9
216 -15 222 -23 22 -63 23 -84 2z"/>
<path d="M1890 670 c-19 -19 -20 -33 -20 -230 l0 -210 -209 0 c-230 0 -241 -3
-241 -60 0 -56 18 -60 285 -60 202 0 244 3 263 16 22 15 22 18 22 270 0 241
-1 255 -20 274 -11 11 -29 20 -40 20 -11 0 -29 -9 -40 -20z"/>
</g>
</svg>
